<svg xmlns="http://www.w3.org/2000/svg" xmlns:xlink="http://www.w3.org/1999/xlink" version="1.1"><svg width="1367" height="755.25"><svg width="1367" height="755.25" x="0" y="0"></svg><svg width="1367" height="755.25" x="0" y="0"></svg><svg width="1367" height="755.25" x="0" y="0"></svg><svg width="1367" height="755.25" x="0" y="0"></svg></svg><svg width="1367" height="755.25"><polyline points="450,216 455,220 467,223 477,228 490,232 507,240 528,247 551,254 577,261 608,267 637,272 674,278 715,282 752,286 792,290 826,292 856,293 880,293 907,291 923,290 934,289 944,287 949,285 952,282 955,281 958,277 959,268 959,259 957,247 951,235 938,215 916,191 886,157 843,123 791,85 731,58 671,34 607,23 540,11 485,12 430,23 379,34 332,52 303,72 280,88 261,106 244,127 231,147 224,170 219,198 220,222 225,257 237,290 256,331 282,370 314,412 354,448 401,485 456,519 512,545 563,568 611,581 649,587 683,591 707,590 724,589 738,585 746,582 753,578 756,576 757,574 759,571 758,566 753,557 741,547 716,530 675,508 619,487 557,465 488,446 415,431 341,416 268,407 205,397 149,395 100,395 67,396 42,399 29,402 21,403 18,404 17,404 17,405 23,406 70,416 110,420 173,427 252,432 344,442 448,447 552,450 653,450 737,448 816,443 886,434 929,430 958,424 972,422 981,418 983,417 984,416 985,416 985,413 971,402 933,381 886,361 817,336 743,314 662,296 575,276 492,261 413,253 351,249 299,249 265,250 244,253 232,254 224,256 222,257 222,260 227,264 285,286 341,304 463,332 576,358 668,374 774,392 876,408 971,416 1044,423 1099,423 1132,423 1148,423 1157,421 1163,420 1164,414 1157,401 1136,385 1091,355 1043,325 982,296 922,265 853,240 784,216" fill="none" stroke-width="1" stroke="#000000"></polyline></svg><svg width="1367" height="755.25"></svg><svg width="1367" height="755.25"></svg><svg width="1367" height="755.25"></svg></svg>