<svg xmlns="http://www.w3.org/2000/svg" xmlns:xlink="http://www.w3.org/1999/xlink" version="1.1"><svg width="1344" height="755"><svg width="1344" height="755"></svg><polyline points="393,261 394,265 395,269 397,273 397,276 401,282 404,286 406,293 409,297 414,304 417,309 422,316 426,319 431,325 438,331 445,336 456,342 469,349 481,355 494,359 511,365 534,371 550,375 568,378 585,380 607,380 623,380 639,379 655,378 673,374 688,370 701,363 710,359 720,353 728,348 733,342 739,336 743,328 747,321 749,314 750,307 750,297 750,288 744,274 740,260 734,249 726,237 712,225 697,211 675,198 647,185 622,174 600,168 578,164 551,163 533,163 519,164 506,168 496,172 488,178 481,182 478,186 472,192 470,200 468,207 468,220 468,231 470,243 479,260 490,285 507,305 526,327 554,350 584,374 618,402 656,423 694,444 732,465 767,481 798,499 830,515 852,527 867,534 878,541 889,547 896,549 900,552 901,554 902,554 896,556 883,559 865,562 849,563 827,564 793,566 763,568 726,570 696,572 660,572 621,572 588,572 558,571 528,569 498,567 479,565 454,560 438,557 423,553 410,550 400,545 393,542 388,538 384,534 382,531 378,524 377,521 376,518 376,513 376,510 376,505 377,499 380,492 383,484 388,475 399,465 408,454 419,444 435,430 461,411 484,395 510,381 544,365 577,353 605,342 637,334 670,325 690,319 708,316 723,310 737,308 750,307 760,305 770,304 775,304 778,304 781,304 783,304" fill="none" stroke-width="1" stroke="#000000"></polyline></svg></svg>