<?xml version="1.0" encoding="iso-8859-1"?>
<!-- Generator: Adobe Illustrator 19.0.0, SVG Export Plug-In . SVG Version: 6.00 Build 0)  -->
<svg version="1.1" id="Layer_1" xmlns="http://www.w3.org/2000/svg" xmlns:xlink="http://www.w3.org/1999/xlink" x="0px" y="0px"
	 viewBox="0 0 512 512" style="enable-background:new 0 0 512 512;" xml:space="preserve">
<g>
	<g>
		<path d="M464.053,343.363l-52.524-157.573C433.099,175.501,448,153.498,448,128c0-35.355-28.645-64-64-64
			c-18.291,0-34.773,7.679-46.435,19.976L168.179,46.334C160.512,19.579,135.891,0,106.667,0c-35.355,0-64,28.645-64,64
			c0,26.889,16.577,49.882,40.065,59.359L45.092,386.84C18.972,394.902,0,419.228,0,448c0,35.355,28.645,64,64,64
			c28.772,0,53.098-18.972,61.159-45.092l263.482-37.64c9.477,23.489,32.469,40.066,59.359,40.066c35.355,0,64-28.645,64-64
			C512,375.522,491.634,350.484,464.053,343.363z M384,106.667c11.791,0,21.333,9.542,21.333,21.333s-9.542,21.333-21.333,21.333
			s-21.333-9.542-21.333-21.333S372.209,106.667,384,106.667z M367.947,189.97l52.524,157.573
			c-16.001,7.633-28.331,21.711-33.631,38.883l-263.482,37.64c-6.493-16.094-19.331-28.931-35.424-35.424l37.64-263.482
			c17.915-5.53,32.459-18.714,39.833-35.734l154.743,34.387C320.062,125.199,320,126.592,320,128
			C320,157.811,340.366,182.85,367.947,189.97z M106.667,42.667C118.458,42.667,128,52.209,128,64s-9.542,21.333-21.333,21.333
			S85.333,75.791,85.333,64S94.875,42.667,106.667,42.667z M64,469.333c-11.791,0-21.333-9.542-21.333-21.333
			S52.209,426.667,64,426.667S85.333,436.209,85.333,448S75.791,469.333,64,469.333z M448,426.667
			c-11.791,0-21.333-9.542-21.333-21.333S436.209,384,448,384s21.333,9.542,21.333,21.333S459.791,426.667,448,426.667z"/>
	</g>
</g>
<g>
</g>
<g>
</g>
<g>
</g>
<g>
</g>
<g>
</g>
<g>
</g>
<g>
</g>
<g>
</g>
<g>
</g>
<g>
</g>
<g>
</g>
<g>
</g>
<g>
</g>
<g>
</g>
<g>
</g>
</svg>
