<?xml version="1.0" encoding="iso-8859-1"?>
<!-- Generator: Adobe Illustrator 19.0.0, SVG Export Plug-In . SVG Version: 6.00 Build 0)  -->
<svg version="1.1" xmlns="http://www.w3.org/2000/svg" xmlns:xlink="http://www.w3.org/1999/xlink" x="0px" y="0px"
	 viewBox="0 0 298.656 298.656" xml:space="preserve">
			<path fill="#3E3E3E" d="M285.966,12.689c-16.917-16.917-44.301-16.92-61.221,0c-6.257,6.257-179.379,179.38-193.423,193.423
				c-0.799,0.799-1.469,1.816-1.891,2.932c-0.01,0.026-0.023,0.05-0.033,0.076L0.53,287.436c-2.452,6.65,4.037,13.142,10.69,10.69
				l78.316-28.868c0.027-0.01,0.051-0.024,0.078-0.034c1.12-0.425,2.139-1.099,2.93-1.89
				C98.74,261.137,258.469,101.41,285.966,73.91C302.886,56.992,302.886,29.609,285.966,12.689z M22.393,276.262l18.127-49.179
				l31.051,31.051L22.393,276.262z M86.657,249.673l-37.675-37.674L218.518,42.463l37.675,37.674L86.657,249.673z M274.193,62.138
				l-6.226,6.226l-37.676-37.674l6.227-6.227c10.412-10.411,27.262-10.412,37.674,0C284.605,34.874,284.605,51.725,274.193,62.138z"
				/>
			<path fill="#3E3E3E" d="M192.307,94.576l-91.209,91.209c-3.251,3.251-3.251,8.523,0,11.773c3.251,3.251,8.523,3.251,11.773,0l91.209-91.209
				c3.251-3.251,3.251-8.523,0-11.773C200.828,91.326,195.557,91.326,192.307,94.576z"/>
		
</svg>
