<?xml version="1.0" encoding="iso-8859-1"?>
<!-- Generator: Adobe Illustrator 19.0.0, SVG Export Plug-In . SVG Version: 6.00 Build 0)  -->
<svg version="1.1" id="Layer_1" xmlns="http://www.w3.org/2000/svg" xmlns:xlink="http://www.w3.org/1999/xlink" x="0px" y="0px"
	 viewBox="0 0 512.001 512.001" style="enable-background:new 0 0 512.001 512.001;" xml:space="preserve">
<g>
	<g>
		<g>
			<path d="M292.263,454.262c-6.561-5.764-14.982-8.621-23.692-8.056c-4.159,0.269-8.388,0.406-12.571,0.406
				c-21.873,0-43.302-3.665-63.694-10.893c-16.988-6.022-35.715,2.901-41.738,19.893c-2.917,8.231-2.455,17.106,1.302,24.989
				c3.757,7.883,10.36,13.832,18.591,16.749c27.426,9.721,56.205,14.65,85.54,14.65c5.601,0,11.257-0.183,16.808-0.545
				c17.989-1.169,31.674-16.755,30.505-34.745C302.747,467.996,298.823,460.023,292.263,454.262z M271.513,491.499
				c-5.123,0.333-10.342,0.502-15.512,0.502c-27.053,0-53.584-4.542-78.858-13.5c-6.597-2.339-10.062-9.609-7.723-16.206
				c1.843-5.2,6.75-8.454,11.976-8.454c1.404,0,2.832,0.235,4.23,0.73c22.543,7.991,46.221,12.042,70.376,12.042
				c4.613,0,9.277-0.151,13.869-0.448c3.381-0.223,6.649,0.889,9.197,3.125c2.547,2.237,4.07,5.334,4.291,8.719
				C283.812,484.993,278.498,491.044,271.513,491.499z"/>
			<path d="M126.499,395.866c-19.172-17.76-34.244-38.813-44.798-62.573c-7.316-16.473-26.672-23.92-43.151-16.606
				c-16.474,7.318-23.923,26.675-16.605,43.151c14.177,31.916,34.403,60.177,60.117,83.997c6.064,5.616,13.952,8.709,22.213,8.709
				c9.08,0,17.823-3.817,23.989-10.476C140.515,428.845,139.723,408.118,126.499,395.866z M113.593,428.478
				c-2.429,2.623-5.738,4.067-9.317,4.067c-3.205,0-6.267-1.201-8.621-3.381c-23.712-21.966-42.362-48.022-55.432-77.444
				c-1.376-3.098-1.464-6.547-0.246-9.712c1.217-3.164,3.594-5.665,6.692-7.041c1.67-0.741,3.416-1.092,5.136-1.092
				c4.867,0,9.52,2.813,11.62,7.539c11.661,26.253,28.309,49.511,49.483,69.125C118.042,415.296,118.35,423.342,113.593,428.478z"/>
			<path d="M33.056,291.194c8.733-0.092,16.907-3.581,23.015-9.821c6.109-6.241,9.423-14.487,9.329-23.228
				c-0.008-0.727-0.011-1.453-0.012-2.179c-0.02-18.008-14.686-32.659-32.729-32.659c-8.733,0.009-16.939,3.418-23.108,9.6
				C3.383,239.09-0.01,247.303,0,256.035c0.001,0.936,0.006,1.871,0.016,2.815c0.192,17.835,14.855,32.345,32.687,32.345
				L33.056,291.194z M20.016,258.645c-0.009-0.876-0.014-1.754-0.015-2.632c-0.004-3.39,1.313-6.579,3.708-8.979
				c2.395-2.401,5.581-3.725,8.986-3.728c6.992,0,12.686,5.689,12.694,12.682c0.001,0.796,0.004,1.592,0.014,2.378
				c0.036,3.39-1.251,6.591-3.622,9.014c-2.372,2.423-5.546,3.777-8.949,3.813l-0.128,0.001
				C25.782,271.194,20.09,265.561,20.016,258.645z"/>
			<path d="M437.021,74.98c-48.352-48.351-112.639-74.98-181.02-74.98c-35.556,0-69.986,7.161-102.338,21.283
				c-20.108,8.778-38.793,19.98-55.869,33.434l-9.26-8.855c-7.293-6.975-17.427-9.447-27.114-6.62
				c-9.685,2.829-16.895,10.37-19.286,20.17l-20.2,82.752c-2.393,9.801,0.532,19.815,7.824,26.788
				c5.306,5.075,12.117,7.766,19.165,7.766c2.637,0,5.307-0.376,7.943-1.146l81.768-23.871c9.686-2.827,16.897-10.367,19.291-20.168
				c2.395-9.802-0.53-19.817-7.822-26.791l-4.438-4.244c31.967-22.821,70.092-35.11,110.336-35.11
				c105.104,0,190.612,85.508,190.612,190.612c0,44.367-15.572,87.566-43.849,121.638c-16.684,20.104-36.892,36.311-60.063,48.168
				c-7.773,3.979-13.533,10.746-16.217,19.056c-2.685,8.31-1.972,17.168,2.007,24.942c5.62,10.982,16.779,17.805,29.123,17.805
				c5.138,0,10.282-1.243,14.875-3.594c31.102-15.916,58.217-37.657,80.594-64.619c37.994-45.785,58.918-103.813,58.918-163.396
				C512.001,187.62,485.372,123.332,437.021,74.98z M138.496,126.787c-0.325,1.334-1.511,4.561-5.466,5.715h-0.001l-81.768,23.872
				c-3.952,1.154-6.688-0.927-7.681-1.875c-0.993-0.948-3.194-3.588-2.217-7.591l20.2-82.752c0.977-4.003,4.146-5.33,5.465-5.715
				c0.508-0.149,1.324-0.327,2.306-0.327c1.563,0,3.548,0.453,5.378,2.203l7.795,7.455l14.481,13.849l18.38,17.578l14.509,13.876
				l6.402,6.121C139.258,122.043,138.822,125.454,138.496,126.787z M437.692,406.624c-20.636,24.865-45.639,44.913-74.315,59.588
				c-1.813,0.928-3.751,1.398-5.763,1.398c-4.799,0-9.136-2.65-11.318-6.916c-1.545-3.019-1.822-6.458-0.78-9.685
				c1.042-3.226,3.278-5.854,6.297-7.398c25.598-13.1,47.919-30.999,66.343-53.201c31.249-37.654,48.458-85.388,48.458-134.41
				c0-116.132-94.48-210.612-210.612-210.612c-45.782,0-89.084,14.389-125.031,41.056l-18.568-17.758
				c15.133-11.629,31.604-21.365,49.263-29.074c29.811-13.012,61.55-19.611,94.335-19.611c63.038,0,122.303,24.548,166.877,69.123
				c44.575,44.573,69.123,103.838,69.123,166.877C492.001,310.929,472.714,364.421,437.692,406.624z"/>
			<path d="M77.715,93.339c-5.33-1.419-10.815,1.75-12.238,7.086l-5.138,19.267c-1.423,5.336,1.749,10.816,7.086,12.239
				c0.863,0.23,1.729,0.34,2.583,0.34c4.419,0,8.463-2.954,9.655-7.426l5.138-19.267C86.224,100.242,83.052,94.761,77.715,93.339z"
				/>
		</g>
	</g>
</g>
<g>
</g>
<g>
</g>
<g>
</g>
<g>
</g>
<g>
</g>
<g>
</g>
<g>
</g>
<g>
</g>
<g>
</g>
<g>
</g>
<g>
</g>
<g>
</g>
<g>
</g>
<g>
</g>
<g>
</g>
</svg>
