<svg xmlns="http://www.w3.org/2000/svg" data-name="Layer 1" viewBox="0 0 64 64"><path fill="#000" d="M59.05,41.66c-3.42-2.17-6.49-4.79-9.91-7-2-1.3-3.81.85-1.71,2.18,2.36,1.5,4.56,3.21,6.83,4.84A75.82,75.82,0,0,1,34,40.83l-1.23-.22c5-4.36,7.76-11.53,6.32-17.89-2-8.68-13.37-13.09-20.25-6.64s-4.74,19.13,2.82,24.1a15.19,15.19,0,0,0,2,1.09c-5.75,1.47-13,.29-18.46.07-2.42-.1-.59,3.07,1.08,3.14C13,44.74,22,46.25,28.48,43.39c.29-.13.57-.28.85-.42,1.69.33,3.41.57,5.12.91a76,76,0,0,0,16.21,1.22L46,47.93c-1.72,1,1.08,3.81,2.61,2.89L59.5,44.19C60.51,43.59,59.8,42.14,59.05,41.66ZM18.76,24c1.55-6.17,9.87-11.33,15.08-5.44,5.54,6.27.06,17.16-6.43,21.11a14.92,14.92,0,0,1-3.63-1.28C18.7,35.76,17.48,29.16,18.76,24Z"/></svg>