<?xml version="1.0" encoding="iso-8859-1"?>
<!--https://www.svgrepo.com/svg/239274/scale 
	Generator: Adobe Illustrator 19.0.0, SVG Export Plug-In . SVG Version: 6.00 Build 0)  -->
<svg version="1.1" id="Layer_1" xmlns="http://www.w3.org/2000/svg" xmlns:xlink="http://www.w3.org/1999/xlink" x="0px" y="0px"
	 viewBox="0 0 512 512" style="enable-background:new 0 0 512 512;" xml:space="preserve">
<g>
	<g>
		<g>
			<path fill="#3E3E3E" d="M316.526,309.214c-0.077-0.351-0.15-0.703-0.229-1.052c-0.16-0.704-0.329-1.404-0.499-2.105
				c-0.094-0.39-0.188-0.78-0.285-1.169c-0.175-0.697-0.356-1.391-0.541-2.085c-0.101-0.379-0.203-0.757-0.307-1.135
				c-0.194-0.707-0.392-1.412-0.596-2.115c-0.097-0.335-0.199-0.669-0.298-1.003c-0.222-0.745-0.446-1.49-0.68-2.23
				c-0.053-0.167-0.109-0.332-0.162-0.498c-0.842-2.634-1.756-5.235-2.737-7.803c-0.073-0.192-0.143-0.386-0.217-0.578
				c-0.011-0.028-0.023-0.054-0.034-0.081c-13.092-33.763-38.104-61.574-69.875-78.279c-0.297-0.156-0.592-0.316-0.89-0.47
				c-0.642-0.332-1.29-0.656-1.938-0.979c-0.344-0.172-0.687-0.344-1.033-0.513c-0.645-0.316-1.294-0.625-1.944-0.932
				c-0.344-0.162-0.689-0.323-1.035-0.483c-0.665-0.307-1.332-0.611-2.002-0.908c-0.318-0.141-0.638-0.28-0.958-0.419
				c-0.705-0.307-1.41-0.612-2.12-0.909c-0.225-0.094-0.452-0.184-0.678-0.277C209.957,195.984,190.779,192,170.667,192
				c-82.481,0-149.333,66.853-149.333,149.333c0,8.823,0.834,17.586,2.424,26.288C9.053,382.952,0,403.745,0,426.667
				C0,473.798,38.202,512,85.333,512c22.922,0,43.715-9.053,59.045-23.757c8.702,1.59,17.465,2.424,26.288,2.424
				c50.794,0,95.653-25.36,122.63-64.104c0.879,0.029,1.754,0.065,2.64,0.08c11.78,0.202,21.494-9.183,21.697-20.964
				c0.101-5.862-2.184-11.2-5.945-15.122c5.379-15.414,8.313-31.975,8.313-49.224C320,330.305,318.794,319.561,316.526,309.214z
				 M42.667,426.667c0-12.565,5.431-23.857,14.071-31.665l3.35-2.484c6.454-4.785,13.809-7.658,21.568-8.35
				c0.269-0.023,0.539-0.044,0.809-0.062c0.313-0.022,0.626-0.043,0.941-0.058c0.639-0.028,1.281-0.049,1.928-0.049
				C108.901,384,128,403.099,128,426.667c0,0.647-0.02,1.288-0.049,1.928c-0.015,0.314-0.036,0.628-0.058,0.941
				c-0.018,0.27-0.039,0.54-0.062,0.809c-0.692,7.76-3.564,15.115-8.35,21.568l-2.484,3.35c-7.808,8.64-19.1,14.071-31.665,14.071
				C61.766,469.333,42.667,450.234,42.667,426.667z M170.667,448c-0.893,0-1.786-0.013-2.679-0.037
				c0.84-3.268,1.466-6.62,1.916-10.027c0.05-0.37,0.096-0.741,0.141-1.112c0.078-0.654,0.16-1.306,0.222-1.964
				c0.108-1.099,0.188-2.205,0.252-3.312c0.02-0.358,0.036-0.717,0.052-1.077c0.057-1.264,0.096-2.531,0.096-3.805
				c0-47.131-38.202-85.333-85.333-85.333c-1.273,0-2.541,0.039-3.805,0.096c-0.359,0.016-0.719,0.032-1.077,0.052
				c-1.108,0.064-2.213,0.144-3.312,0.252c-0.658,0.063-1.31,0.145-1.964,0.222c-0.371,0.045-0.742,0.091-1.112,0.141
				c-3.407,0.45-6.759,1.076-10.027,1.916C64.013,343.12,64,342.226,64,341.333c0-40.269,22.31-75.316,55.242-93.47
				c0.473-0.21,0.946-0.416,1.41-0.663c5.254-2.802,10.716-5.16,16.339-7.047c0.406-0.136,0.804-0.287,1.196-0.445
				c10.241-3.27,21.153-5.041,32.48-5.041c13.203,0,25.841,2.404,37.511,6.788c0.911,0.342,1.816,0.697,2.716,1.064
				c0.37,0.151,0.742,0.299,1.11,0.453c1.052,0.443,2.096,0.906,3.133,1.382c0.376,0.173,0.75,0.348,1.124,0.525
				c1.048,0.496,2.089,1.005,3.12,1.536c0.302,0.155,0.601,0.317,0.902,0.476c0.942,0.496,1.877,1.004,2.803,1.528
				c21.587,12.204,38.493,31.711,47.369,55.169c0.342,0.904,0.673,1.813,0.99,2.727c0.144,0.414,0.287,0.827,0.426,1.243
				c0.328,0.983,0.639,1.971,0.937,2.964c0.123,0.408,0.246,0.815,0.365,1.225c0.316,1.096,0.614,2.198,0.894,3.305
				c0.1,0.394,0.194,0.79,0.289,1.186c0.255,1.058,0.498,2.12,0.72,3.188c1.476,7.071,2.256,14.398,2.256,21.907
				c0,16.481-3.739,32.087-10.412,46.02c-0.255,0.432-0.514,0.861-0.741,1.317c-0.86,1.726-1.767,3.431-2.719,5.112
				c-0.287,0.507-0.543,1.02-0.784,1.536C244.144,426.841,209.882,448,170.667,448z"/>
			<path fill="#3E3E3E" d="M192.149,79.973c4.941-3.952,10.097-7.628,15.443-11.008c9.958-6.297,12.927-19.474,6.63-29.432
				s-19.474-12.927-29.432-6.63c-6.68,4.224-13.121,8.815-19.292,13.751c-9.201,7.359-10.694,20.784-3.334,29.985
				C169.523,85.839,182.948,87.332,192.149,79.973z"/>
			<path fill="#3E3E3E" d="M110.23,170.544c11.132,3.86,23.285-2.034,27.146-13.166c2.073-5.977,4.477-11.827,7.2-17.526
				c5.079-10.631,0.578-23.367-10.053-28.446c-10.631-5.079-23.367-0.578-28.446,10.053c-3.408,7.133-6.418,14.457-9.013,21.94
				C93.204,154.53,99.099,166.684,110.23,170.544z"/>
			<path fill="#3E3E3E" d="M387.379,359.169c-5.399,3.292-10.976,6.281-16.708,8.952c-10.679,4.977-15.302,17.668-10.326,28.348
				s17.668,15.302,28.348,10.326c7.171-3.342,14.147-7.08,20.897-11.196c10.06-6.133,13.243-19.261,7.109-29.32
				C410.565,356.219,397.438,353.036,387.379,359.169z"/>
			<path fill="#3E3E3E" d="M511.084,193.449c-1.086-11.732-11.476-20.363-23.208-19.277c-11.732,1.086-20.363,11.476-19.277,23.208
				c0.489,5.285,0.734,10.606,0.734,16.017c-0.005,1.508-0.005,1.508-0.027,3.018c-0.208,11.78,9.173,21.499,20.953,21.707
				c11.78,0.208,21.499-9.173,21.707-20.953c0.028-1.88,0.028-1.88,0.034-3.765C512,206.675,511.694,200.042,511.084,193.449z"/>
			<path fill="#3E3E3E" d="M480.119,279.799c-10.544-5.257-23.354-0.97-28.61,9.574c-2.822,5.66-5.957,11.158-9.39,16.47
				c-6.396,9.895-3.559,23.101,6.337,29.497c9.895,6.396,23.101,3.559,29.497-6.337c4.292-6.64,8.212-13.515,11.741-20.594
				C494.95,297.865,490.663,285.056,480.119,279.799z"/>
			<path fill="#3E3E3E" d="M403.591,51.094c5.274-10.535,1.01-23.352-9.526-28.627c-7.069-3.539-14.335-6.684-21.767-9.416
				c-11.058-4.066-23.319,1.602-27.385,12.661c-4.066,11.058,1.602,23.319,12.661,27.385c5.937,2.183,11.741,4.695,17.391,7.523
				C385.5,65.895,398.316,61.63,403.591,51.094z"/>
			<path fill="#3E3E3E" d="M298.667,0c-7.939,0-15.828,0.434-23.644,1.297c-11.711,1.292-20.157,11.834-18.864,23.545
				c1.292,11.711,11.834,20.157,23.545,18.864c6.262-0.691,12.589-1.039,18.964-1.039c11.782,0,21.333-9.551,21.333-21.333
				C320,9.551,310.449,0,298.667,0z"/>
			<path fill="#3E3E3E" d="M473.992,132.093c10.072-6.113,13.282-19.233,7.17-29.306c-4.102-6.758-8.576-13.284-13.399-19.546
				c-7.19-9.334-20.585-11.072-29.919-3.881c-9.334,7.19-11.072,20.585-3.881,29.919c3.862,5.013,7.443,10.236,10.725,15.644
				C450.799,134.996,463.92,138.206,473.992,132.093z"/>
		</g>
	</g>
</g>
<g>
</g>
<g>
</g>
<g>
</g>
<g>
</g>
<g>
</g>
<g>
</g>
<g>
</g>
<g>
</g>
<g>
</g>
<g>
</g>
<g>
</g>
<g>
</g>
<g>
</g>
<g>
</g>
<g>
</g>
</svg>
