<?xml version="1.0" encoding="UTF-8" standalone="no"?> <svg xmlns="http://www.w3.org/2000/svg" viewBox="0 0 64 64"><g id="Layer_30" data-name="Layer 30"><path d="M60,55.7H33.76L59.05,30.41a5.38,5.38,0,0,0,0-7.56L43.44,7.25a5.36,5.36,0,0,0-7.56,0L5,38.19a5.38,5.38,0,0,0,0,7.56L18.24,59a1.87,1.87,0,0,0,.75.52h0a2.08,2.08,0,0,0,.74.15H60A2,2,0,0,0,60,55.7ZM38.71,10.08a1.36,1.36,0,0,1,1.91,0l15.6,15.6a1.35,1.35,0,0,1,0,1.9L48.78,35,31.28,17.51ZM7.78,41,28.45,20.34,46,37.85,28.1,55.7H20.57L7.78,42.92A1.36,1.36,0,0,1,7.78,41Z"/></g></svg>