<svg xmlns="http://www.w3.org/2000/svg" xmlns:svgjs="http://svgjs.com/svgjs" xmlns:xlink="http://www.w3.org/1999/xlink" width="288" height="288">
<svg xmlns="http://www.w3.org/2000/svg" width="288" height="288" data-name="Layer 1" viewBox="0 0 110 110"><path fill="#828a95" d="M12,6a.99974.99974,0,0,0-1,1v4.38379L8.56934,12.60693a.99968.99968,0,1,0,.89843,1.78614l2.98145-1.5A.99874.99874,0,0,0,13,12V7A.99974.99974,0,0,0,12,6Zm0-4A10,10,0,1,0,22,12,10.01146,10.01146,0,0,0,12,2Zm0,18a8,8,0,1,1,8-8A8.00917,8.00917,0,0,1,12,20Z" class="color000 svgShape"/></svg></svg>